<svg xmlns="http://www.w3.org/2000/svg" viewBox="0 0 640 480" role="img" aria-label="NAS uredjaj i rezervne kopije u oblaku">
  <defs>
    <linearGradient id="bg" x1="0" y1="0" x2="1" y2="1"><stop offset="0" stop-color="#eafbfe"/><stop offset="1" stop-color="#cdeef6"/></linearGradient>
    <linearGradient id="screen" x1="0" y1="0" x2="0" y2="1"><stop offset="0" stop-color="#0ea2bd"/><stop offset="1" stop-color="#0a7185"/></linearGradient>
    <linearGradient id="teal" x1="0" y1="0" x2="1" y2="1"><stop offset="0" stop-color="#2db8cf"/><stop offset="1" stop-color="#0a7185"/></linearGradient>
    <linearGradient id="accent" x1="0" y1="0" x2="1" y2="1"><stop offset="0" stop-color="#f7b955"/><stop offset="1" stop-color="#ef8f3c"/></linearGradient>
  </defs>
  <rect x="8" y="8" width="624" height="464" rx="32" fill="url(#bg)"/>
  <circle cx="320" cy="232" r="150" fill="#ffffff" opacity="0.55"/>
  <circle cx="520" cy="104" r="46" fill="#8fdce8" opacity="0.5"/>
  <circle cx="116" cy="384" r="30" fill="#8fdce8" opacity="0.5"/>
  <g fill="#0ea2bd" opacity="0.45"><circle cx="486" cy="392" r="5"/><circle cx="508" cy="392" r="5"/><circle cx="530" cy="392" r="5"/><circle cx="486" cy="414" r="5"/><circle cx="508" cy="414" r="5"/><circle cx="530" cy="414" r="5"/></g>

  <rect x="196" y="236" width="150" height="150" rx="14" fill="#ffffff" stroke="#0a7185" stroke-width="6"/>
  <g fill="url(#screen)"><rect x="214" y="254" width="114" height="26" rx="6"/><rect x="214" y="288" width="114" height="26" rx="6"/><rect x="214" y="322" width="114" height="26" rx="6"/></g>
  <g fill="#9fe7f3"><circle cx="232" cy="267" r="5"/><circle cx="232" cy="301" r="5"/><circle cx="232" cy="335" r="5"/></g>
  <g transform="translate(420,150)"><path fill="#0ea2bd" d="M-70 30a34 34 0 0 1 6-67 40 40 0 0 1 75-10 30 30 0 0 1 19 77z" stroke="#0a7185" stroke-width="4"/><path d="M0 56 v-58 M-20 18 l20-22 20 22" fill="none" stroke="#ffffff" stroke-width="7" stroke-linecap="round" stroke-linejoin="round"/></g>
  <line x1="300" y1="236" x2="380" y2="196" stroke="#0a7185" stroke-width="4" stroke-dasharray="3 8" stroke-linecap="round"/>
</svg>
