<svg xmlns="http://www.w3.org/2000/svg" viewBox="0 0 640 480" role="img" aria-label="Procena i matrica rizika">
  <defs>
    <linearGradient id="bg" x1="0" y1="0" x2="1" y2="1"><stop offset="0" stop-color="#eafbfe"/><stop offset="1" stop-color="#cdeef6"/></linearGradient>
    <linearGradient id="screen" x1="0" y1="0" x2="0" y2="1"><stop offset="0" stop-color="#0ea2bd"/><stop offset="1" stop-color="#0a7185"/></linearGradient>
    <linearGradient id="teal" x1="0" y1="0" x2="1" y2="1"><stop offset="0" stop-color="#2db8cf"/><stop offset="1" stop-color="#0a7185"/></linearGradient>
    <linearGradient id="accent" x1="0" y1="0" x2="1" y2="1"><stop offset="0" stop-color="#f7b955"/><stop offset="1" stop-color="#ef8f3c"/></linearGradient>
  </defs>
  <rect x="8" y="8" width="624" height="464" rx="32" fill="url(#bg)"/>
  <circle cx="320" cy="232" r="150" fill="#ffffff" opacity="0.55"/>
  <circle cx="520" cy="104" r="46" fill="#8fdce8" opacity="0.5"/>
  <circle cx="116" cy="384" r="30" fill="#8fdce8" opacity="0.5"/>
  <g fill="#0ea2bd" opacity="0.45"><circle cx="486" cy="392" r="5"/><circle cx="508" cy="392" r="5"/><circle cx="530" cy="392" r="5"/><circle cx="486" cy="414" r="5"/><circle cx="508" cy="414" r="5"/><circle cx="530" cy="414" r="5"/></g>

  <g transform="translate(196,128)">
    <rect x="0" y="0" width="78" height="58" rx="6" fill="#bff0a0"/><rect x="84" y="0" width="78" height="58" rx="6" fill="#bff0a0"/><rect x="168" y="0" width="78" height="58" rx="6" fill="#ffe08a"/>
    <rect x="0" y="64" width="78" height="58" rx="6" fill="#bff0a0"/><rect x="84" y="64" width="78" height="58" rx="6" fill="#ffe08a"/><rect x="168" y="64" width="78" height="58" rx="6" fill="#ffb36b"/>
    <rect x="0" y="128" width="78" height="58" rx="6" fill="#ffe08a"/><rect x="84" y="128" width="78" height="58" rx="6" fill="#ffb36b"/><rect x="168" y="128" width="78" height="58" rx="6" fill="#f47766"/>
    <g transform="translate(207,157)"><circle r="22" fill="#0a7185" stroke="#ffffff" stroke-width="4"/><path d="M0-11v13 M0 7v1" stroke="#ffffff" stroke-width="5" stroke-linecap="round"/></g>
  </g>
</svg>
