<svg xmlns="http://www.w3.org/2000/svg" viewBox="0 0 640 480" role="img" aria-label="Kontrole pristupa i enkripcija podataka">
  <defs>
    <linearGradient id="bg" x1="0" y1="0" x2="1" y2="1"><stop offset="0" stop-color="#eafbfe"/><stop offset="1" stop-color="#cdeef6"/></linearGradient>
    <linearGradient id="screen" x1="0" y1="0" x2="0" y2="1"><stop offset="0" stop-color="#0ea2bd"/><stop offset="1" stop-color="#0a7185"/></linearGradient>
    <linearGradient id="teal" x1="0" y1="0" x2="1" y2="1"><stop offset="0" stop-color="#2db8cf"/><stop offset="1" stop-color="#0a7185"/></linearGradient>
    <linearGradient id="accent" x1="0" y1="0" x2="1" y2="1"><stop offset="0" stop-color="#f7b955"/><stop offset="1" stop-color="#ef8f3c"/></linearGradient>
  </defs>
  <rect x="8" y="8" width="624" height="464" rx="32" fill="url(#bg)"/>
  <circle cx="320" cy="232" r="150" fill="#ffffff" opacity="0.55"/>
  <circle cx="520" cy="104" r="46" fill="#8fdce8" opacity="0.5"/>
  <circle cx="116" cy="384" r="30" fill="#8fdce8" opacity="0.5"/>
  <g fill="#0ea2bd" opacity="0.45"><circle cx="486" cy="392" r="5"/><circle cx="508" cy="392" r="5"/><circle cx="530" cy="392" r="5"/><circle cx="486" cy="414" r="5"/><circle cx="508" cy="414" r="5"/><circle cx="530" cy="414" r="5"/></g>

  <rect x="196" y="118" width="180" height="236" rx="14" fill="#ffffff" stroke="#0a7185" stroke-width="6"/>
  <g fill="#cfe6ec"><rect x="220" y="146" width="120" height="12" rx="6"/><rect x="220" y="172" width="132" height="10" rx="5"/><rect x="220" y="194" width="100" height="10" rx="5"/></g>
  <g fill="#9fe7f3"><circle cx="226" cy="232" r="5"/><circle cx="244" cy="232" r="5"/><circle cx="262" cy="232" r="5"/><circle cx="280" cy="232" r="5"/><circle cx="298" cy="232" r="5"/></g>
  <g fill="#bfe3ec"><circle cx="226" cy="252" r="5"/><circle cx="244" cy="252" r="5"/><circle cx="262" cy="252" r="5"/></g>
  <g transform="translate(360,272)"><rect x="-44" y="-2" width="88" height="74" rx="12" fill="url(#teal)"/><path d="M-28 -2 v-18 a28 28 0 0 1 56 0 v18" fill="none" stroke="#0a7185" stroke-width="11"/><circle cy="30" r="9" fill="#ffffff"/></g>
  <g transform="translate(232,300)"><circle r="18" fill="none" stroke="#f7b955" stroke-width="8"/><path d="M14 0 h44 v14 M44 0 v14" fill="none" stroke="#f7b955" stroke-width="8" stroke-linecap="round"/></g>
</svg>
