<svg xmlns="http://www.w3.org/2000/svg" viewBox="0 0 640 480" role="img" aria-label="Plan kontinuiteta i provere">
  <defs>
    <linearGradient id="bg" x1="0" y1="0" x2="1" y2="1"><stop offset="0" stop-color="#eafbfe"/><stop offset="1" stop-color="#cdeef6"/></linearGradient>
    <linearGradient id="screen" x1="0" y1="0" x2="0" y2="1"><stop offset="0" stop-color="#0ea2bd"/><stop offset="1" stop-color="#0a7185"/></linearGradient>
    <linearGradient id="teal" x1="0" y1="0" x2="1" y2="1"><stop offset="0" stop-color="#2db8cf"/><stop offset="1" stop-color="#0a7185"/></linearGradient>
    <linearGradient id="accent" x1="0" y1="0" x2="1" y2="1"><stop offset="0" stop-color="#f7b955"/><stop offset="1" stop-color="#ef8f3c"/></linearGradient>
  </defs>
  <rect x="8" y="8" width="624" height="464" rx="32" fill="url(#bg)"/>
  <circle cx="320" cy="232" r="150" fill="#ffffff" opacity="0.55"/>
  <circle cx="520" cy="104" r="46" fill="#8fdce8" opacity="0.5"/>
  <circle cx="116" cy="384" r="30" fill="#8fdce8" opacity="0.5"/>
  <g fill="#0ea2bd" opacity="0.45"><circle cx="486" cy="392" r="5"/><circle cx="508" cy="392" r="5"/><circle cx="530" cy="392" r="5"/><circle cx="486" cy="414" r="5"/><circle cx="508" cy="414" r="5"/><circle cx="530" cy="414" r="5"/></g>

  <rect x="206" y="120" width="208" height="244" rx="14" fill="#ffffff" stroke="#0a7185" stroke-width="6"/>
  <rect x="266" y="104" width="88" height="34" rx="10" fill="#0a7185"/>
  <g transform="translate(236,176)"><circle r="14" fill="#0ea2bd"/><path d="M-7 1l5 5 9-11" fill="none" stroke="#ffffff" stroke-width="5" stroke-linecap="round" stroke-linejoin="round"/></g>
  <g transform="translate(236,222)"><circle r="14" fill="#0ea2bd"/><path d="M-7 1l5 5 9-11" fill="none" stroke="#ffffff" stroke-width="5" stroke-linecap="round" stroke-linejoin="round"/></g>
  <g transform="translate(236,268)"><circle r="14" fill="#0ea2bd"/><path d="M-7 1l5 5 9-11" fill="none" stroke="#ffffff" stroke-width="5" stroke-linecap="round" stroke-linejoin="round"/></g>
  <g transform="translate(236,314)"><circle r="14" fill="none" stroke="#b9c6cf" stroke-width="4"/></g>
  <g fill="#cfe6ec"><rect x="266" y="170" width="116" height="12" rx="6"/><rect x="266" y="216" width="116" height="12" rx="6"/><rect x="266" y="262" width="100" height="12" rx="6"/><rect x="266" y="308" width="80" height="12" rx="6"/></g>
</svg>
