<svg xmlns="http://www.w3.org/2000/svg" viewBox="0 0 640 480" role="img" aria-label="Upravljanje IT uslugama po ISO 20000">
  <defs>
    <linearGradient id="bg" x1="0" y1="0" x2="1" y2="1"><stop offset="0" stop-color="#eafbfe"/><stop offset="1" stop-color="#cdeef6"/></linearGradient>
    <linearGradient id="screen" x1="0" y1="0" x2="0" y2="1"><stop offset="0" stop-color="#0ea2bd"/><stop offset="1" stop-color="#0a7185"/></linearGradient>
    <linearGradient id="teal" x1="0" y1="0" x2="1" y2="1"><stop offset="0" stop-color="#2db8cf"/><stop offset="1" stop-color="#0a7185"/></linearGradient>
    <linearGradient id="accent" x1="0" y1="0" x2="1" y2="1"><stop offset="0" stop-color="#f7b955"/><stop offset="1" stop-color="#ef8f3c"/></linearGradient>
  </defs>
  <rect x="8" y="8" width="624" height="464" rx="32" fill="url(#bg)"/>
  <circle cx="320" cy="232" r="150" fill="#ffffff" opacity="0.55"/>
  <circle cx="520" cy="104" r="46" fill="#8fdce8" opacity="0.5"/>
  <circle cx="116" cy="384" r="30" fill="#8fdce8" opacity="0.5"/>
  <g fill="#0ea2bd" opacity="0.45"><circle cx="486" cy="392" r="5"/><circle cx="508" cy="392" r="5"/><circle cx="530" cy="392" r="5"/><circle cx="486" cy="414" r="5"/><circle cx="508" cy="414" r="5"/><circle cx="530" cy="414" r="5"/></g>

  <g transform="translate(276,224)"><path fill="url(#screen)" d="M0-74l15 5 11-14 17 10-4 17 14 11-5 16 17 5v20l-17 5 5 16-14 11 4 17-17 10-11-14-15 5-5 17h-20l-5-17-15-5-11 14-17-10 4-17-14-11 5-16-17-5v-20l17-5-5-16 14-11-4-17 17-10 11 14 15-5 5-17h20z"/><circle r="28" fill="#eafbfe"/><circle r="13" fill="#0a7185"/></g>
  <g transform="translate(392,304)"><path fill="url(#teal)" d="M0-54l11 4 8-10 12 7-3 12 10 8-4 11 12 4v14l-12 4 4 11-10 8 3 12-12 7-8-10-11 4-4 12h-14l-4-12-11-4-8 10-12-7 3-12-10-8 4-11-12-4v-14l12-4-4-11 10-8-3-12 12-7 8 10 11-4 4-12h14z"/><circle r="20" fill="#eafbfe"/><circle r="9" fill="#0a7185"/></g>
</svg>
