<svg xmlns="http://www.w3.org/2000/svg" viewBox="0 0 640 480" role="img" aria-label="Kontinuitet poslovanja po ISO 22301">
  <defs>
    <linearGradient id="bg" x1="0" y1="0" x2="1" y2="1"><stop offset="0" stop-color="#eafbfe"/><stop offset="1" stop-color="#cdeef6"/></linearGradient>
    <linearGradient id="screen" x1="0" y1="0" x2="0" y2="1"><stop offset="0" stop-color="#0ea2bd"/><stop offset="1" stop-color="#0a7185"/></linearGradient>
    <linearGradient id="teal" x1="0" y1="0" x2="1" y2="1"><stop offset="0" stop-color="#2db8cf"/><stop offset="1" stop-color="#0a7185"/></linearGradient>
    <linearGradient id="accent" x1="0" y1="0" x2="1" y2="1"><stop offset="0" stop-color="#f7b955"/><stop offset="1" stop-color="#ef8f3c"/></linearGradient>
  </defs>
  <rect x="8" y="8" width="624" height="464" rx="32" fill="url(#bg)"/>
  <circle cx="320" cy="232" r="150" fill="#ffffff" opacity="0.55"/>
  <circle cx="520" cy="104" r="46" fill="#8fdce8" opacity="0.5"/>
  <circle cx="116" cy="384" r="30" fill="#8fdce8" opacity="0.5"/>
  <g fill="#0ea2bd" opacity="0.45"><circle cx="486" cy="392" r="5"/><circle cx="508" cy="392" r="5"/><circle cx="530" cy="392" r="5"/><circle cx="486" cy="414" r="5"/><circle cx="508" cy="414" r="5"/><circle cx="530" cy="414" r="5"/></g>

  <g transform="translate(320,236)" fill="none" stroke="url(#teal)" stroke-width="16" stroke-linecap="round">
    <path d="M0-104 a104 104 0 0 1 90 52"/><path d="M90 52 a104 104 0 0 1 -180 0"/><path d="M-90 52 a104 104 0 0 1 70 -98"/>
  </g>
  <path d="M404 232 l14 26 -30 4z" fill="#0a7185"/>
  <path d="M236 232 l-14 -26 30 -4z" fill="#0a7185"/>
  <g transform="translate(320,236)"><rect x="-50" y="-44" width="100" height="92" rx="10" fill="#ffffff" stroke="#0a7185" stroke-width="5"/><g fill="#0ea2bd"><rect x="-36" y="-30" width="24" height="20" rx="3"/><rect x="-2" y="-30" width="24" height="20" rx="3"/><rect x="-36" y="2" width="24" height="20" rx="3"/><rect x="-2" y="2" width="24" height="20" rx="3"/></g><rect x="-14" y="28" width="28" height="20" fill="#0a7185"/></g>
</svg>
