<svg xmlns="http://www.w3.org/2000/svg" viewBox="0 0 640 480" role="img" aria-label="Upravljanje uslugama i radni tok">
  <defs>
    <linearGradient id="bg" x1="0" y1="0" x2="1" y2="1"><stop offset="0" stop-color="#eafbfe"/><stop offset="1" stop-color="#cdeef6"/></linearGradient>
    <linearGradient id="screen" x1="0" y1="0" x2="0" y2="1"><stop offset="0" stop-color="#0ea2bd"/><stop offset="1" stop-color="#0a7185"/></linearGradient>
    <linearGradient id="teal" x1="0" y1="0" x2="1" y2="1"><stop offset="0" stop-color="#2db8cf"/><stop offset="1" stop-color="#0a7185"/></linearGradient>
    <linearGradient id="accent" x1="0" y1="0" x2="1" y2="1"><stop offset="0" stop-color="#f7b955"/><stop offset="1" stop-color="#ef8f3c"/></linearGradient>
  </defs>
  <rect x="8" y="8" width="624" height="464" rx="32" fill="url(#bg)"/>
  <circle cx="320" cy="232" r="150" fill="#ffffff" opacity="0.55"/>
  <circle cx="520" cy="104" r="46" fill="#8fdce8" opacity="0.5"/>
  <circle cx="116" cy="384" r="30" fill="#8fdce8" opacity="0.5"/>
  <g fill="#0ea2bd" opacity="0.45"><circle cx="486" cy="392" r="5"/><circle cx="508" cy="392" r="5"/><circle cx="530" cy="392" r="5"/><circle cx="486" cy="414" r="5"/><circle cx="508" cy="414" r="5"/><circle cx="530" cy="414" r="5"/></g>

  <g fill="none" stroke="#0ea2bd" stroke-width="5" opacity="0.8"><path d="M214 182 h120"/><path d="M334 182 q40 0 40 50 t40 66"/></g>
  <rect x="160" y="150" width="108" height="64" rx="12" fill="url(#screen)"/>
  <rect x="286" y="150" width="108" height="64" rx="12" fill="#ffffff" stroke="#0a7185" stroke-width="5"/>
  <rect x="404" y="266" width="108" height="64" rx="12" fill="url(#teal)"/>
  <g fill="#ffffff" opacity="0.9"><rect x="178" y="170" width="60" height="9" rx="4"/><rect x="178" y="188" width="44" height="8" rx="4"/></g>
  <g fill="#cfe6ec"><rect x="304" y="170" width="60" height="9" rx="4"/><rect x="304" y="188" width="44" height="8" rx="4"/></g>
  <g transform="translate(446,298)"><path d="M-12 2l8 8 16-18" fill="none" stroke="#ffffff" stroke-width="6" stroke-linecap="round" stroke-linejoin="round"/></g>
  <circle cx="334" cy="182" r="7" fill="#0a7185"/>
</svg>
