<svg xmlns="http://www.w3.org/2000/svg" viewBox="0 0 640 480" role="img" aria-label="Bezbednost informacija po ISO 27001">
  <defs>
    <linearGradient id="bg" x1="0" y1="0" x2="1" y2="1"><stop offset="0" stop-color="#eafbfe"/><stop offset="1" stop-color="#cdeef6"/></linearGradient>
    <linearGradient id="screen" x1="0" y1="0" x2="0" y2="1"><stop offset="0" stop-color="#0ea2bd"/><stop offset="1" stop-color="#0a7185"/></linearGradient>
    <linearGradient id="teal" x1="0" y1="0" x2="1" y2="1"><stop offset="0" stop-color="#2db8cf"/><stop offset="1" stop-color="#0a7185"/></linearGradient>
    <linearGradient id="accent" x1="0" y1="0" x2="1" y2="1"><stop offset="0" stop-color="#f7b955"/><stop offset="1" stop-color="#ef8f3c"/></linearGradient>
  </defs>
  <rect x="8" y="8" width="624" height="464" rx="32" fill="url(#bg)"/>
  <circle cx="320" cy="232" r="150" fill="#ffffff" opacity="0.55"/>
  <circle cx="520" cy="104" r="46" fill="#8fdce8" opacity="0.5"/>
  <circle cx="116" cy="384" r="30" fill="#8fdce8" opacity="0.5"/>
  <g fill="#0ea2bd" opacity="0.45"><circle cx="486" cy="392" r="5"/><circle cx="508" cy="392" r="5"/><circle cx="530" cy="392" r="5"/><circle cx="486" cy="414" r="5"/><circle cx="508" cy="414" r="5"/><circle cx="530" cy="414" r="5"/></g>

  <g transform="translate(320,232)"><path d="M0-128l110 40v72c0 74-54 114-110 134-56-20-110-60-110-134v-72z" fill="url(#screen)" stroke="#0a7185" stroke-width="6"/></g>
  <g transform="translate(320,222)"><rect x="-42" y="-4" width="84" height="70" rx="12" fill="#ffffff"/><path d="M-26 -4 v-20 a26 26 0 0 1 52 0 v20" fill="none" stroke="#ffffff" stroke-width="12"/><circle cy="24" r="10" fill="#0a7185"/><rect x="-5" y="24" width="10" height="22" rx="5" fill="#0a7185"/></g>
  <rect x="260" y="316" width="120" height="28" rx="14" fill="#0a7185"/>
  <text x="320" y="336" text-anchor="middle" font-family="Poppins,Arial,sans-serif" font-size="16" font-weight="700" fill="#ffffff">ISO 27001</text>
</svg>
