<svg xmlns="http://www.w3.org/2000/svg" viewBox="0 0 640 480" role="img" aria-label="Besplatne IT konsultacije i podrska">
  <defs>
    <linearGradient id="bg" x1="0" y1="0" x2="1" y2="1"><stop offset="0" stop-color="#eafbfe"/><stop offset="1" stop-color="#cdeef6"/></linearGradient>
    <linearGradient id="screen" x1="0" y1="0" x2="0" y2="1"><stop offset="0" stop-color="#0ea2bd"/><stop offset="1" stop-color="#0a7185"/></linearGradient>
    <linearGradient id="teal" x1="0" y1="0" x2="1" y2="1"><stop offset="0" stop-color="#2db8cf"/><stop offset="1" stop-color="#0a7185"/></linearGradient>
  </defs>
  <rect x="8" y="8" width="624" height="464" rx="32" fill="url(#bg)"/>
  <circle cx="320" cy="232" r="150" fill="#ffffff" opacity="0.55"/>
  <circle cx="520" cy="104" r="46" fill="#8fdce8" opacity="0.5"/>
  <circle cx="116" cy="384" r="30" fill="#8fdce8" opacity="0.5"/>
  <g fill="#0ea2bd" opacity="0.45"><circle cx="486" cy="392" r="5"/><circle cx="508" cy="392" r="5"/><circle cx="530" cy="392" r="5"/><circle cx="486" cy="414" r="5"/><circle cx="508" cy="414" r="5"/><circle cx="530" cy="414" r="5"/></g>

  <!-- big chat bubble with checkmark -->
  <path d="M170 118 h210 a26 26 0 0 1 26 26 v120 a26 26 0 0 1 -26 26 h-120 l-46 40 v-40 h-44 a26 26 0 0 1 -26 -26 v-120 a26 26 0 0 1 26 -26 z" fill="url(#screen)"/>
  <path d="M218 206 l28 28 56 -66" fill="none" stroke="#ffffff" stroke-width="14" stroke-linecap="round" stroke-linejoin="round"/>

  <!-- small reply bubble -->
  <g transform="translate(430,250)">
    <path d="M0 0 h120 a22 22 0 0 1 22 22 v70 a22 22 0 0 1 -22 22 h-70 l-34 30 v-30 h-16 a22 22 0 0 1 -22 -22 v-70 a22 22 0 0 1 22 -22 z" fill="#ffffff" stroke="#0a7185" stroke-width="5"/>
    <g fill="#0ea2bd"><circle cx="34" cy="57" r="9"/><circle cx="66" cy="57" r="9"/><circle cx="98" cy="57" r="9"/></g>
  </g>

  <!-- support gear accent -->
  <g transform="translate(176,330)"><path fill="url(#teal)" d="M0-40l8 3 6-8 9 5-2 9 8 6-3 8 9 3v11l-9 3 3 8-8 6 2 9-9 5-6-8-8 3-3 9h-11l-3-9-8-3-6 8-9-5 2-9-8-6 3-8-9-3v-11l9-3-3-8 8-6-2-9 9-5 6 8 8-3 3-9h11z"/><circle r="15" fill="#eafbfe"/><circle r="6" fill="#0a7185"/></g>
</svg>
