<svg xmlns="http://www.w3.org/2000/svg" viewBox="0 0 640 480" role="img" aria-label="Mrezna oprema i bezicno povezivanje">
  <defs>
    <linearGradient id="bg" x1="0" y1="0" x2="1" y2="1"><stop offset="0" stop-color="#eafbfe"/><stop offset="1" stop-color="#cdeef6"/></linearGradient>
    <linearGradient id="screen" x1="0" y1="0" x2="0" y2="1"><stop offset="0" stop-color="#0ea2bd"/><stop offset="1" stop-color="#0a7185"/></linearGradient>
    <linearGradient id="teal" x1="0" y1="0" x2="1" y2="1"><stop offset="0" stop-color="#2db8cf"/><stop offset="1" stop-color="#0a7185"/></linearGradient>
    <linearGradient id="accent" x1="0" y1="0" x2="1" y2="1"><stop offset="0" stop-color="#f7b955"/><stop offset="1" stop-color="#ef8f3c"/></linearGradient>
  </defs>
  <rect x="8" y="8" width="624" height="464" rx="32" fill="url(#bg)"/>
  <circle cx="320" cy="232" r="150" fill="#ffffff" opacity="0.55"/>
  <circle cx="520" cy="104" r="46" fill="#8fdce8" opacity="0.5"/>
  <circle cx="116" cy="384" r="30" fill="#8fdce8" opacity="0.5"/>
  <g fill="#0ea2bd" opacity="0.45"><circle cx="486" cy="392" r="5"/><circle cx="508" cy="392" r="5"/><circle cx="530" cy="392" r="5"/><circle cx="486" cy="414" r="5"/><circle cx="508" cy="414" r="5"/><circle cx="530" cy="414" r="5"/></g>

  <rect x="200" y="250" width="240" height="70" rx="14" fill="url(#screen)"/>
  <g fill="#9fe7f3"><circle cx="232" cy="285" r="7"/><circle cx="260" cy="285" r="7"/><circle cx="288" cy="285" r="7"/></g>
  <rect x="392" y="276" width="30" height="8" rx="4" fill="#bdeaf2"/>
  <line x1="250" y1="250" x2="250" y2="206" stroke="#0a7185" stroke-width="6" stroke-linecap="round"/>
  <line x1="390" y1="250" x2="390" y2="206" stroke="#0a7185" stroke-width="6" stroke-linecap="round"/>
  <circle cx="250" cy="200" r="8" fill="#0a7185"/><circle cx="390" cy="200" r="8" fill="#0a7185"/>
  <g transform="translate(320,168)" fill="none" stroke="#0ea2bd" stroke-width="9" stroke-linecap="round">
    <path d="M-22 0a31 31 0 0 1 44 0" opacity="0.9"/><path d="M-42 -20a59 59 0 0 1 84 0" opacity="0.6"/><path d="M-62 -40a87 87 0 0 1 124 0" opacity="0.35"/>
  </g>
  <circle cx="320" cy="172" r="9" fill="#0ea2bd"/>
</svg>
