<svg xmlns="http://www.w3.org/2000/svg" viewBox="0 0 640 480" role="img" aria-label="O nama - misija, vrednosti i vizija">
  <defs>
    <linearGradient id="bg" x1="0" y1="0" x2="1" y2="1"><stop offset="0" stop-color="#eafbfe"/><stop offset="1" stop-color="#cdeef6"/></linearGradient>
    <linearGradient id="screen" x1="0" y1="0" x2="0" y2="1"><stop offset="0" stop-color="#0ea2bd"/><stop offset="1" stop-color="#0a7185"/></linearGradient>
    <linearGradient id="teal" x1="0" y1="0" x2="1" y2="1"><stop offset="0" stop-color="#2db8cf"/><stop offset="1" stop-color="#0a7185"/></linearGradient>
  </defs>
  <rect x="8" y="8" width="624" height="464" rx="32" fill="url(#bg)"/>
  <circle cx="320" cy="232" r="150" fill="#ffffff" opacity="0.55"/>
  <circle cx="520" cy="104" r="46" fill="#8fdce8" opacity="0.5"/>
  <circle cx="116" cy="384" r="30" fill="#8fdce8" opacity="0.5"/>
  <g fill="#0ea2bd" opacity="0.45"><circle cx="486" cy="392" r="5"/><circle cx="508" cy="392" r="5"/><circle cx="530" cy="392" r="5"/><circle cx="486" cy="414" r="5"/><circle cx="508" cy="414" r="5"/><circle cx="530" cy="414" r="5"/></g>

  <!-- target -->
  <g transform="translate(338,238)">
    <circle r="120" fill="#ffffff" stroke="#0a7185" stroke-width="6"/>
    <circle r="88" fill="#dff4f8"/>
    <circle r="56" fill="#5cccdd"/>
    <circle r="26" fill="#0a7185"/>
    <circle r="8" fill="#ffffff"/>
  </g>

  <!-- dart -->
  <line x1="150" y1="120" x2="326" y2="230" stroke="#0a7185" stroke-width="9" stroke-linecap="round"/>
  <path d="M338 238 l-30 -2 8 -22 z" fill="#f7b955" stroke="#0a7185" stroke-width="3" stroke-linejoin="round"/>
  <g stroke="#0ea2bd" stroke-width="8" stroke-linecap="round">
    <line x1="150" y1="120" x2="128" y2="116"/>
    <line x1="150" y1="120" x2="146" y2="98"/>
    <line x1="150" y1="120" x2="170" y2="138"/>
  </g>

  <!-- small stars -->
  <g fill="#0ea2bd">
    <path d="M470 250 l6 14 15 1 -11 10 4 15 -14 -8 -14 8 4 -15 -11 -10 15 -1z"/>
  </g>
</svg>
