<svg xmlns="http://www.w3.org/2000/svg" viewBox="0 0 640 480" role="img" aria-label="Ilustracija servisa i odrzavanja racunara">
  <defs>
    <linearGradient id="bg" x1="0" y1="0" x2="1" y2="1"><stop offset="0" stop-color="#eafbfe"/><stop offset="1" stop-color="#cdeef6"/></linearGradient>
    <linearGradient id="screen" x1="0" y1="0" x2="0" y2="1"><stop offset="0" stop-color="#0ea2bd"/><stop offset="1" stop-color="#0a7185"/></linearGradient>
    <linearGradient id="teal" x1="0" y1="0" x2="1" y2="1"><stop offset="0" stop-color="#2db8cf"/><stop offset="1" stop-color="#0a7185"/></linearGradient>
    <linearGradient id="accent" x1="0" y1="0" x2="1" y2="1"><stop offset="0" stop-color="#f7b955"/><stop offset="1" stop-color="#ef8f3c"/></linearGradient>
  </defs>
  <rect x="8" y="8" width="624" height="464" rx="32" fill="url(#bg)"/>
  <circle cx="320" cy="232" r="150" fill="#ffffff" opacity="0.55"/>
  <circle cx="520" cy="104" r="46" fill="#8fdce8" opacity="0.5"/>
  <circle cx="116" cy="384" r="30" fill="#8fdce8" opacity="0.5"/>
  <g fill="#0ea2bd" opacity="0.45"><circle cx="486" cy="392" r="5"/><circle cx="508" cy="392" r="5"/><circle cx="530" cy="392" r="5"/><circle cx="486" cy="414" r="5"/><circle cx="508" cy="414" r="5"/><circle cx="530" cy="414" r="5"/></g>

  <rect x="180" y="120" width="280" height="190" rx="16" fill="#ffffff" stroke="#0a7185" stroke-width="6"/>
  <rect x="198" y="138" width="244" height="154" rx="8" fill="url(#screen)"/>
  <rect x="218" y="162" width="120" height="12" rx="6" fill="#ffffff" opacity="0.85"/>
  <rect x="218" y="186" width="180" height="10" rx="5" fill="#ffffff" opacity="0.45"/>
  <rect x="218" y="206" width="150" height="10" rx="5" fill="#ffffff" opacity="0.45"/>
  <rect x="300" y="310" width="40" height="34" fill="#b9c6cf"/>
  <rect x="250" y="344" width="140" height="16" rx="8" fill="#0a7185"/>
  <g transform="translate(452,150)"><path fill="url(#teal)" d="M0-54l11 4 8-10 12 7-3 12 10 8-4 11 12 4v14l-12 4 4 11-10 8 3 12-12 7-8-10-11 4-4 12h-14l-4-12-11-4-8 10-12-7 3-12-10-8 4-11-12-4v-14l12-4-4-11 10-8-3-12 12-7 8 10 11-4 4-12h14z"/><circle r="20" fill="#eafbfe"/><circle r="9" fill="#0a7185"/></g>
  <g transform="translate(150,300) rotate(-40)"><path fill="#0ea2bd" stroke="#0a7185" stroke-width="4" stroke-linejoin="round" d="M66 8a32 32 0 0 1-43 38L-42 110l-22-22L0 22A32 32 0 0 1 38-20l-17 17 11 11 17-17A32 32 0 0 1 66 8z"/></g>
  <g transform="translate(430,300)"><circle r="32" fill="#0ea2bd" stroke="#ffffff" stroke-width="5"/><path d="M-14 2l9 9 19-20" fill="none" stroke="#ffffff" stroke-width="7" stroke-linecap="round" stroke-linejoin="round"/></g>
</svg>
