<svg xmlns="http://www.w3.org/2000/svg" viewBox="0 0 640 480" role="img" aria-label="Optimizacija i monitoring performansi racunara">
  <defs>
    <linearGradient id="bg" x1="0" y1="0" x2="1" y2="1"><stop offset="0" stop-color="#eafbfe"/><stop offset="1" stop-color="#cdeef6"/></linearGradient>
    <linearGradient id="screen" x1="0" y1="0" x2="0" y2="1"><stop offset="0" stop-color="#0ea2bd"/><stop offset="1" stop-color="#0a7185"/></linearGradient>
    <linearGradient id="teal" x1="0" y1="0" x2="1" y2="1"><stop offset="0" stop-color="#2db8cf"/><stop offset="1" stop-color="#0a7185"/></linearGradient>
    <linearGradient id="accent" x1="0" y1="0" x2="1" y2="1"><stop offset="0" stop-color="#f7b955"/><stop offset="1" stop-color="#ef8f3c"/></linearGradient>
  </defs>
  <rect x="8" y="8" width="624" height="464" rx="32" fill="url(#bg)"/>
  <circle cx="320" cy="232" r="150" fill="#ffffff" opacity="0.55"/>
  <circle cx="520" cy="104" r="46" fill="#8fdce8" opacity="0.5"/>
  <circle cx="116" cy="384" r="30" fill="#8fdce8" opacity="0.5"/>
  <g fill="#0ea2bd" opacity="0.45"><circle cx="486" cy="392" r="5"/><circle cx="508" cy="392" r="5"/><circle cx="530" cy="392" r="5"/><circle cx="486" cy="414" r="5"/><circle cx="508" cy="414" r="5"/><circle cx="530" cy="414" r="5"/></g>

  <rect x="170" y="140" width="300" height="180" rx="12" fill="#ffffff" stroke="#0a7185" stroke-width="6"/>
  <rect x="186" y="156" width="268" height="148" rx="6" fill="#f3fbfd"/>
  <polyline points="206,280 252,250 296,262 340,210 384,224 430,168" fill="none" stroke="url(#teal)" stroke-width="7" stroke-linecap="round" stroke-linejoin="round"/>
  <g fill="#0ea2bd"><circle cx="252" cy="250" r="6"/><circle cx="340" cy="210" r="6"/><circle cx="430" cy="168" r="6"/></g>
  <rect x="206" y="290" width="224" height="6" rx="3" fill="#d4e6ec"/>
  <path d="M150 320 h340 l-26 28 h-288 z" fill="#0a7185"/>
  <g transform="translate(470,116)"><path d="M-44 22a44 44 0 0 1 88 0" fill="none" stroke="#cfe6ec" stroke-width="12" stroke-linecap="round"/><path d="M-44 22a44 44 0 0 1 70 -26" fill="none" stroke="url(#accent)" stroke-width="12" stroke-linecap="round"/><line x1="0" y1="22" x2="22" y2="-6" stroke="#0a7185" stroke-width="6" stroke-linecap="round"/><circle cy="22" r="7" fill="#0a7185"/></g>
</svg>
