<svg xmlns="http://www.w3.org/2000/svg" viewBox="0 0 640 480" role="img" aria-label="Aplikativni dashboard i izvestaji">
  <defs>
    <linearGradient id="bg" x1="0" y1="0" x2="1" y2="1"><stop offset="0" stop-color="#eafbfe"/><stop offset="1" stop-color="#cdeef6"/></linearGradient>
    <linearGradient id="screen" x1="0" y1="0" x2="0" y2="1"><stop offset="0" stop-color="#0ea2bd"/><stop offset="1" stop-color="#0a7185"/></linearGradient>
    <linearGradient id="teal" x1="0" y1="0" x2="1" y2="1"><stop offset="0" stop-color="#2db8cf"/><stop offset="1" stop-color="#0a7185"/></linearGradient>
    <linearGradient id="accent" x1="0" y1="0" x2="1" y2="1"><stop offset="0" stop-color="#f7b955"/><stop offset="1" stop-color="#ef8f3c"/></linearGradient>
  </defs>
  <rect x="8" y="8" width="624" height="464" rx="32" fill="url(#bg)"/>
  <circle cx="320" cy="232" r="150" fill="#ffffff" opacity="0.55"/>
  <circle cx="520" cy="104" r="46" fill="#8fdce8" opacity="0.5"/>
  <circle cx="116" cy="384" r="30" fill="#8fdce8" opacity="0.5"/>
  <g fill="#0ea2bd" opacity="0.45"><circle cx="486" cy="392" r="5"/><circle cx="508" cy="392" r="5"/><circle cx="530" cy="392" r="5"/><circle cx="486" cy="414" r="5"/><circle cx="508" cy="414" r="5"/><circle cx="530" cy="414" r="5"/></g>

  <rect x="156" y="120" width="328" height="220" rx="16" fill="#ffffff" stroke="#0a7185" stroke-width="6"/>
  <path d="M156 160 h328" stroke="#0a7185" stroke-width="6"/>
  <rect x="176" y="133" width="80" height="12" rx="6" fill="#0ea2bd"/>
  <rect x="178" y="180" width="130" height="64" rx="8" fill="#eaf6f9" stroke="#bfe3ec" stroke-width="3"/>
  <polyline points="190,228 214,206 238,216 262,190 290,200" fill="none" stroke="#0ea2bd" stroke-width="5" stroke-linecap="round" stroke-linejoin="round"/>
  <rect x="324" y="180" width="142" height="64" rx="8" fill="#eaf6f9" stroke="#bfe3ec" stroke-width="3"/>
  <g fill="#0ea2bd"><rect x="338" y="208" width="14" height="28" rx="3"/><rect x="360" y="196" width="14" height="40" rx="3"/><rect x="382" y="214" width="14" height="22" rx="3"/><rect x="404" y="200" width="14" height="36" rx="3"/><rect x="426" y="190" width="14" height="46" rx="3"/></g>
  <rect x="178" y="262" width="288" height="16" rx="8" fill="#e4eef2"/>
  <rect x="178" y="288" width="220" height="16" rx="8" fill="#eef4f7"/>
  <circle cx="438" cy="296" r="22" fill="none" stroke="#cfe6ec" stroke-width="8"/>
  <path d="M438 274 a22 22 0 0 1 16 38" fill="none" stroke="#0ea2bd" stroke-width="8" stroke-linecap="round"/>
</svg>
