<svg xmlns="http://www.w3.org/2000/svg" viewBox="0 0 640 480" role="img" aria-label="Responzivni dizajn za sve uredjaje">
  <defs>
    <linearGradient id="bg" x1="0" y1="0" x2="1" y2="1"><stop offset="0" stop-color="#eafbfe"/><stop offset="1" stop-color="#cdeef6"/></linearGradient>
    <linearGradient id="screen" x1="0" y1="0" x2="0" y2="1"><stop offset="0" stop-color="#0ea2bd"/><stop offset="1" stop-color="#0a7185"/></linearGradient>
    <linearGradient id="teal" x1="0" y1="0" x2="1" y2="1"><stop offset="0" stop-color="#2db8cf"/><stop offset="1" stop-color="#0a7185"/></linearGradient>
    <linearGradient id="accent" x1="0" y1="0" x2="1" y2="1"><stop offset="0" stop-color="#f7b955"/><stop offset="1" stop-color="#ef8f3c"/></linearGradient>
  </defs>
  <rect x="8" y="8" width="624" height="464" rx="32" fill="url(#bg)"/>
  <circle cx="320" cy="232" r="150" fill="#ffffff" opacity="0.55"/>
  <circle cx="520" cy="104" r="46" fill="#8fdce8" opacity="0.5"/>
  <circle cx="116" cy="384" r="30" fill="#8fdce8" opacity="0.5"/>
  <g fill="#0ea2bd" opacity="0.45"><circle cx="486" cy="392" r="5"/><circle cx="508" cy="392" r="5"/><circle cx="530" cy="392" r="5"/><circle cx="486" cy="414" r="5"/><circle cx="508" cy="414" r="5"/><circle cx="530" cy="414" r="5"/></g>

  <rect x="168" y="140" width="230" height="160" rx="12" fill="#ffffff" stroke="#0a7185" stroke-width="6"/>
  <rect x="184" y="156" width="198" height="112" rx="6" fill="url(#screen)"/>
  <rect x="240" y="300" width="86" height="12" rx="6" fill="#0a7185"/>
  <rect x="236" y="312" width="94" height="8" rx="4" fill="#b9c6cf"/>
  <rect x="404" y="190" width="96" height="130" rx="12" fill="#ffffff" stroke="#0a7185" stroke-width="6"/>
  <rect x="416" y="206" width="72" height="92" rx="5" fill="#9fe7f3"/>
  <circle cx="452" cy="308" r="5" fill="#0a7185"/>
  <rect x="372" y="250" width="62" height="104" rx="12" fill="#ffffff" stroke="#0a7185" stroke-width="6"/>
  <rect x="382" y="264" width="42" height="74" rx="4" fill="url(#teal)"/>
  <circle cx="403" cy="346" r="4" fill="#0a7185"/>
</svg>
