<svg xmlns="http://www.w3.org/2000/svg" viewBox="0 0 640 480" role="img" aria-label="Dizajn i izrada veb sajtova">
  <defs>
    <linearGradient id="bg" x1="0" y1="0" x2="1" y2="1"><stop offset="0" stop-color="#eafbfe"/><stop offset="1" stop-color="#cdeef6"/></linearGradient>
    <linearGradient id="screen" x1="0" y1="0" x2="0" y2="1"><stop offset="0" stop-color="#0ea2bd"/><stop offset="1" stop-color="#0a7185"/></linearGradient>
    <linearGradient id="teal" x1="0" y1="0" x2="1" y2="1"><stop offset="0" stop-color="#2db8cf"/><stop offset="1" stop-color="#0a7185"/></linearGradient>
    <linearGradient id="accent" x1="0" y1="0" x2="1" y2="1"><stop offset="0" stop-color="#f7b955"/><stop offset="1" stop-color="#ef8f3c"/></linearGradient>
  </defs>
  <rect x="8" y="8" width="624" height="464" rx="32" fill="url(#bg)"/>
  <circle cx="320" cy="232" r="150" fill="#ffffff" opacity="0.55"/>
  <circle cx="520" cy="104" r="46" fill="#8fdce8" opacity="0.5"/>
  <circle cx="116" cy="384" r="30" fill="#8fdce8" opacity="0.5"/>
  <g fill="#0ea2bd" opacity="0.45"><circle cx="486" cy="392" r="5"/><circle cx="508" cy="392" r="5"/><circle cx="530" cy="392" r="5"/><circle cx="486" cy="414" r="5"/><circle cx="508" cy="414" r="5"/><circle cx="530" cy="414" r="5"/></g>

  <rect x="168" y="120" width="304" height="216" rx="14" fill="#ffffff" stroke="#0a7185" stroke-width="6"/>
  <path d="M168 150 h304" stroke="#0a7185" stroke-width="6"/>
  <g fill="#0ea2bd"><circle cx="190" cy="135" r="6"/><circle cx="210" cy="135" r="6"/><circle cx="230" cy="135" r="6"/></g>
  <rect x="188" y="170" width="120" height="60" rx="8" fill="url(#screen)"/>
  <rect x="322" y="170" width="130" height="16" rx="8" fill="#cfe6ec"/>
  <rect x="322" y="196" width="100" height="12" rx="6" fill="#dbedf2"/>
  <rect x="322" y="216" width="130" height="12" rx="6" fill="#dbedf2"/>
  <rect x="188" y="246" width="86" height="58" rx="8" fill="#eaf6f9" stroke="#bfe3ec" stroke-width="3"/>
  <rect x="284" y="246" width="86" height="58" rx="8" fill="#eaf6f9" stroke="#bfe3ec" stroke-width="3"/>
  <rect x="380" y="246" width="72" height="58" rx="8" fill="#eaf6f9" stroke="#bfe3ec" stroke-width="3"/>
  <g transform="translate(384,288)"><path d="M0 0l40 16-16 4-4 16z" fill="#0a7185" stroke="#ffffff" stroke-width="3"/></g>
</svg>
