<svg xmlns="http://www.w3.org/2000/svg" xmlns:xlink="http://www.w3.org/1999/xlink" id="Layer_1" x="0px" y="0px" viewBox="0 0 695 210.69" style="enable-background:new 0 0 695 210.69;" xml:space="preserve"><style type="text/css">	.st0{fill:#0172C5;}	.st1{fill:#011C41;}</style><path class="st0" d="M120.52,127.93c-4.15-10.26-13.53-26.65-30.95-35.74c3.67,0.05,8.76,0.21,15.55,0.28 c0.25,0,0.51,0.02,0.76,0.04c0.61,0.06,1.25,0.14,2.01,0.37c0.58,0.18,1.13,0.42,1.66,0.7c9.56,5.09,15.57,17.81,20.33,26.42 C126.88,121.28,123.76,124.09,120.52,127.93 M75.98,109.29c-0.02-0.06-0.04-0.11-0.06-0.17c-4.94-15.35-6.85-22.27-6.85-22.27 s-7.28,0.46-23.32,0.46c0.05-0.03,0.1-0.07,0.15-0.1c13.11-9.43,19.12-13.38,19.12-13.38s-2.69-6.76-7.65-21.98 c0.05,0.04,0.1,0.07,0.14,0.1c13.05,9.52,18.67,14,18.67,14s5.62-4.64,18.59-14.05c-0.02,0.06-0.04,0.11-0.05,0.17 c-5.05,15.32-7.58,22.04-7.58,22.04s6.16,3.89,19.14,13.3h-0.18c-16.16-0.06-23.35-0.38-23.35-0.38S80.93,94.07,75.98,109.29  M71.1,114.29c-1.9,10.65-12.17,20.28-18.9,27.45c-2.15-2.43-5.79-4.53-10.45-6.41c8.5-7.11,21.22-21.07,24.51-40.41 c1.09,3.49,2.5,8.38,4.54,14.84c0.08,0.24,0.14,0.49,0.2,0.73c0.14,0.6,0.25,1.22,0.27,2.02C71.27,113.1,71.21,113.7,71.1,114.29  M7.47,74.78c1.66-2.79,2.52-6.89,2.89-11.9c9.4,5.87,26.64,13.63,46.1,10.76c-3,2.11-7.22,4.96-12.74,8.89 c-0.21,0.15-0.42,0.29-0.64,0.42c-0.53,0.31-1.09,0.62-1.84,0.88c-0.57,0.2-1.16,0.32-1.75,0.41C28.74,85.72,16.38,78.95,7.47,74.78  M57.48,11.65c3.18,0.71,7.35,0.27,12.24-0.94c-2.69,10.73-4.76,29.49,3.99,47.06c-2.94-2.19-6.96-5.31-12.42-9.34 c-0.21-0.15-0.4-0.31-0.59-0.48c-0.46-0.4-0.93-0.84-1.41-1.47c-0.36-0.48-0.66-1-0.93-1.54C53.63,35.21,56.26,21.4,57.48,11.65  M100.48,52.07c0.34-0.49,0.75-0.94,1.18-1.36c7.81-7.5,21.79-9.27,31.47-11.12c0.31,3.23,2.02,7.06,4.68,11.32 c-11.06,0.77-29.58,4.6-43.64,18.32c1.18-3.46,2.91-8.25,5.07-14.67c0.08-0.24,0.17-0.48,0.27-0.71 C99.75,53.3,100.03,52.72,100.48,52.07L100.48,52.07z M114.24,89.97c14.72,0.88,36.17-12.37,36.17-12.37 c-8.76-15.69-0.45-24.03-0.45-24.03s-11.35-1.76-13.82-19.67c0,0-25.08,1.74-36.46,11.23C105.07,31.44,99.07,7,99.07,7 c-17.67,3.46-23.05-7-23.05-7s-5.19,10.22-23.02,7.03c0,0-6.1,24.32-0.56,38.06c-11.39-9.35-36.55-11.2-36.55-11.2 C13.73,51.73,2.09,53.6,2.09,53.6s8.14,8.08-0.41,24.01c0,0,21.31,13.3,36.12,12.29c-12.43,7.92-21.97,31.21-21.97,31.21 c16.34,7.56,14.52,19.18,14.52,19.18s10.22-5.23,22.77,7.81c0,0,19.26-16.1,22.88-30.47c3.71,14.24,22.97,30.49,22.97,30.49 c12.26-13.16,22.78-7.85,22.78-7.85s-1.83-11.31,14.48-19.19C136.22,121.09,126.82,97.84,114.24,89.97L114.24,89.97z"></path><path class="st0" d="M521.05,39.3h7.66l13.32,34.19h-7.66l-3-7.97h-13.98l-3,7.97h-6.99L521.05,39.3z M524.71,46.27l-5,13.94h9.99 L524.71,46.27z"></path><rect x="544.02" y="36.65" class="st0" width="6.66" height="36.85"></rect><path class="st0" d="M571.99,53.58c-1.34-0.66-2.33-1-4.34-1c-3.99,0-6.66,3.32-6.66,7.97c0,4.65,2.33,8.3,6.66,8.3 c2,0,3.99-0.66,4.99-1.33l0.34,5.31c-2,0.66-4,0.66-6.67,0.66c-8.32,0-12.31-5.64-12.31-13.28c0-7.3,4.33-12.95,12.31-12.95 c2.67,0,4.67,0.33,6.33,1L571.99,53.58z"></path><path class="st0" d="M598.62,73.5h-6.33v-3.32c-1.99,2.32-4.99,3.98-8.32,3.98c-6,0-8.66-4.32-8.66-9.96V48.27h6.66v13.28 c0,2.99,0,7.3,4.33,7.3c4.67,0,5.67-4.98,5.67-8.3V48.27h6.65V73.5z"></path><path class="st0" d="M603.28,48.27h6.01v3.65c1.99-2.99,4.99-3.98,7.65-3.98c3.66,0,5.99,1.33,7.32,4.32 c1.67-2.99,4.66-4.32,7.99-4.32c6.33,0,8,4.32,8,9.96v15.6h-6.66V58.56c0-2.32,0-5.64-3.67-5.64c-4.33,0-4.99,5.31-4.99,8.3V73.5 h-6.66V58.56c0-2.32,0-5.64-3.66-5.64c-4.33,0-5,5.31-5,8.3V73.5h-6.65V48.27H603.28z"></path><path class="st0" d="M668.21,73.5h-6.33v-3.32c-1.99,2.32-4.99,3.98-8.32,3.98c-6,0-8.66-4.32-8.66-9.96V48.27h6.66v13.28 c0,2.99,0,7.3,4.34,7.3c4.66,0,5.65-4.98,5.65-8.3V48.27h6.66V73.5z"></path><path class="st0" d="M687.85,53.58c-2-0.66-3.33-1-6-1c-1.66,0-3.99,0.66-3.99,2.66c0,3.98,11.32,1.33,11.32,10.62 c0,5.98-5.32,8.3-10.65,8.3c-2.66,0-5-0.33-7.32-1l0.33-5.31c1.99,1,4.34,1.66,6.33,1.66c1.66,0,4.34-0.66,4.34-2.99 c0-4.98-11.33-1.66-11.33-10.62c0-5.31,4.66-7.97,9.99-7.97c3,0,4.99,0.33,6.99,1V53.58z"></path><path class="st0" d="M693.78,43.88c-0.11,0.29-0.28,0.55-0.49,0.76c-0.22,0.22-0.47,0.39-0.75,0.51c-0.29,0.12-0.6,0.19-0.93,0.19 s-0.64-0.06-0.93-0.18c-0.29-0.12-0.53-0.29-0.74-0.51c-0.21-0.22-0.37-0.47-0.49-0.76c-0.12-0.29-0.18-0.6-0.18-0.94 c0-0.34,0.06-0.65,0.18-0.93c0.12-0.29,0.28-0.54,0.49-0.76c0.21-0.22,0.45-0.39,0.74-0.51c0.29-0.12,0.6-0.18,0.95-0.18 c0.33,0,0.64,0.06,0.94,0.18c0.28,0.12,0.52,0.29,0.73,0.5c0.21,0.21,0.38,0.46,0.49,0.75c0.12,0.29,0.18,0.6,0.18,0.94 S693.9,43.59,693.78,43.88 M694.37,41.77c-0.15-0.36-0.36-0.67-0.62-0.94c-0.27-0.27-0.58-0.48-0.96-0.63 c-0.36-0.15-0.75-0.22-1.18-0.22c-0.42,0-0.81,0.08-1.19,0.23c-0.36,0.15-0.67,0.36-0.95,0.64c-0.27,0.27-0.48,0.59-0.63,0.95 c-0.16,0.36-0.23,0.75-0.23,1.17c0,0.42,0.07,0.81,0.22,1.17c0.15,0.36,0.36,0.68,0.63,0.95c0.27,0.27,0.58,0.49,0.95,0.64 c0.36,0.15,0.75,0.23,1.18,0.23c0.42,0,0.81-0.08,1.18-0.23c0.36-0.15,0.68-0.36,0.96-0.64c0.27-0.27,0.48-0.59,0.64-0.95 c0.15-0.36,0.22-0.76,0.22-1.18C694.59,42.52,694.52,42.13,694.37,41.77"></path><path class="st0" d="M691.73,43.07h-0.64v-1.16h0.64c0.23,0,0.41,0.05,0.54,0.15c0.13,0.1,0.2,0.24,0.2,0.43 c0,0.18-0.07,0.33-0.2,0.43C692.14,43.02,691.96,43.07,691.73,43.07 M692.63,43.22c0.21-0.18,0.32-0.42,0.32-0.73 c0-0.3-0.11-0.54-0.32-0.72c-0.21-0.18-0.49-0.27-0.86-0.27h-1.18v2.92h0.5v-0.93h0.67c0.04,0,0.07-0.01,0.11-0.01l0.61,0.95H693 l-0.67-1.04C692.44,43.34,692.55,43.29,692.63,43.22"></path><rect x="164.67" y="90.37" class="st1" width="21.82" height="94.28"></rect><path class="st1" d="M198.89,175.35l7.41-16.43c7.95,5.79,19.8,9.83,31.11,9.83c12.93,0,18.18-4.31,18.18-10.1 c0-17.64-54.82-5.52-54.82-40.54c0-16.03,12.93-29.36,39.73-29.36c11.85,0,23.97,2.83,32.73,8.35l-6.74,16.56 c-8.75-4.99-17.77-7.41-26.13-7.41c-12.93,0-17.91,4.85-17.91,10.78c0,17.37,54.81,5.39,54.81,40c0,15.76-13.06,29.23-40,29.23 C222.32,186.27,207.23,181.82,198.89,175.35"></path><path class="st1" d="M283.61,137.51c0-28.01,21.82-48.75,51.58-48.75c29.63,0,51.59,20.61,51.59,48.75 c0,28.15-21.95,48.76-51.59,48.76C305.43,186.26,283.61,165.52,283.61,137.51 M364.69,137.51c0-17.91-12.66-30.17-29.5-30.17 c-16.83,0-29.49,12.26-29.49,30.17c0,17.92,12.66,30.17,29.49,30.17C352.03,167.68,364.69,155.42,364.69,137.51"></path><path class="st1" d="M502.63,194.75c-6.2,7.54-15.08,11.58-25.46,11.58c-14,0-23.84-5.12-38.38-20.47 c-25.86-3.23-44.04-22.76-44.04-48.35c0-28.02,21.82-48.75,51.59-48.75c29.62,0,51.58,20.61,51.58,48.75 c0,22.09-13.61,39.59-33.67,46.06c4.58,4.85,8.62,6.6,13.34,6.6c5.79,0,10.91-2.29,15.35-7L502.63,194.75z M446.34,167.68 c16.83,0,29.49-12.25,29.49-30.16c0-17.91-12.66-30.17-29.49-30.17c-16.84,0-29.5,12.26-29.5,30.17 C416.84,155.42,429.5,167.68,446.34,167.68"></path><path class="st1" d="M572.55,164.44h-43.77l-8.35,20.2h-22.36l42.02-94.27h21.55l42.16,94.27h-22.9L572.55,164.44z M565.68,147.88 l-14.95-36.1l-14.95,36.1H565.68z"></path><path class="st1" d="M671.16,184.65l-18.18-26.26h-1.08h-18.99v26.26h-21.82V90.37h40.81c25.18,0,40.94,13.07,40.94,34.21 c0,14.14-7.14,24.52-19.39,29.77l21.14,30.3H671.16z M650.69,108.15h-17.78v32.86h17.78c13.33,0,20.06-6.19,20.06-16.43 C670.75,114.21,664.02,108.15,650.69,108.15"></path></svg>