<?xml version="1.0" encoding="utf-8"?>
<!-- Generator: Adobe Illustrator 22.1.0, SVG Export Plug-In . SVG Version: 6.00 Build 0)  -->
<svg version="1.1" id="Layer_1" xmlns="http://www.w3.org/2000/svg" xmlns:xlink="http://www.w3.org/1999/xlink" x="0px" y="0px"
	 viewBox="0 0 120.4 26" style="enable-background:new 0 0 120.4 26;" xml:space="preserve">
<style type="text/css">
	.st0{fill:#1D1D1B;}
	.st1{clip-path:url(#SVGID_2_);fill:#1D1D1B;}
	.st2{clip-path:url(#SVGID_4_);fill:#1D1D1B;}
</style>
<polygon class="st0" points="63.1,1.1 63.1,4.2 69.1,4.2 69.1,25.3 72.1,25.3 72.1,4.2 78,4.2 78,1.1 "/>
<g>
	<defs>
		<rect id="SVGID_1_" width="120.4" height="26"/>
	</defs>
	<clipPath id="SVGID_2_">
		<use xlink:href="#SVGID_1_"  style="overflow:visible;"/>
	</clipPath>
	<path class="st1" d="M113.7,26c-3.5,0-6.5-1.2-8.9-3.6c-1.1-1.1-2-2.5-2.6-4.1c-0.7-1.6-1-3.1-1-4.6c0-5.1,1.9-8.9,5.7-11.4
		c1.9-1.3,4.1-1.9,6.5-1.9c2.1,0,4.2,0.5,6.3,1.4c0.1,0,0.2,0.1,0.4,0.2c0.1,0,0.2,0.1,0.3,0.1l0.2,0.1v3.8L120,5.6
		c-2.2-1.3-4.3-2-6.4-2c-2.6,0-4.8,0.9-6.6,2.7c-1.8,1.8-2.7,4-2.7,6.7c0,2.8,0.9,5.2,2.6,7c1.7,1.8,4,2.7,6.7,2.7
		c2,0,4.1-0.7,6.3-2l0.4-0.2v3.7l-0.1,0.1C118,25.4,115.8,26,113.7,26"/>
</g>
<polygon class="st0" points="83.1,1.1 83.1,25.3 95.7,25.3 95.7,22.2 86.2,22.2 86.2,13.6 95.6,13.6 95.6,10.6 86.2,10.6 86.2,4.1 
	95.6,4.1 95.6,1.1 "/>
<g>
	<defs>
		<rect id="SVGID_3_" width="120.4" height="26"/>
	</defs>
	<clipPath id="SVGID_4_">
		<use xlink:href="#SVGID_3_"  style="overflow:visible;"/>
	</clipPath>
	<path class="st2" d="M10.7,25.3H0V1.1h3v21.1h7.6V25.3z M49.3,25.9c-2.6,0-4.8-0.8-6.5-2.5c-1.7-1.6-2.5-3.8-2.5-6.5V1.1h3.1V17
		c0,1.8,0.5,3.2,1.6,4.2c1,1,2.5,1.5,4.4,1.5c1.7,0,3-0.5,4-1.5c1-1,1.6-2.3,1.6-3.8V1.1H58v16c0,2.5-0.8,4.7-2.5,6.3
		C53.9,25.1,51.8,25.9,49.3,25.9"/>
	<polygon class="st2" points="25.7,0 24,3.5 28.9,15.1 18.7,15.1 17.3,18.2 30.3,18.2 33.4,25.3 36.8,25.3 	"/>
</g>
</svg>
